<svg width="10" height="6" viewBox="0 0 10 6" fill="none" xmlns="http://www.w3.org/2000/svg">
<path d="M4.62139 5.64314L0.938521 1.51048C0.815597 1.37276 0.739147 1.20734 0.717912 1.03315C0.696677 0.858956 0.731515 0.683014 0.818441 0.525442C0.905368 0.36787 1.04088 0.235028 1.20947 0.142109C1.37806 0.0491897 1.57293 -5.71337e-05 1.7718 4.97427e-08H9.1444C9.34327 -5.71337e-05 9.53814 0.0491897 9.70673 0.142109C9.87532 0.235028 10.0108 0.36787 10.0978 0.525442C10.1847 0.683014 10.2195 0.858956 10.1983 1.03315C10.1771 1.20734 10.1006 1.37276 9.97768 1.51048L6.28795 5.64314C6.1888 5.75434 6.06228 5.84424 5.91793 5.90606C5.77358 5.96788 5.61517 6 5.45467 6C5.29417 6 5.13576 5.96788 4.99141 5.90606C4.84706 5.84424 4.72054 5.75434 4.62139 5.64314Z" fill="#A7A9AC"/>
</svg>
