<svg width="17" height="23" viewBox="0 0 17 23" fill="none" xmlns="http://www.w3.org/2000/svg">
<path d="M16.5981 3.36C16.5981 1.1552 12.5725 0 8.59808 0C4.62368 0 0.598083 1.1552 0.598083 3.36C0.598083 3.3984 0.598083 3.4368 0.598083 3.4784C0.598083 3.52 0.598083 3.52 0.598083 3.52V14.08C0.598686 14.1589 0.613874 14.237 0.642883 14.3104C1.08448 16.2624 4.86368 17.28 8.59808 17.28C12.3325 17.28 16.1117 16.2624 16.5533 14.3104C16.5823 14.237 16.5975 14.1589 16.5981 14.08V3.52C16.5981 3.504 16.5981 3.4912 16.5981 3.4784C16.5981 3.4656 16.5981 3.3984 16.5981 3.36ZM15.3181 8.7776V10.4C15.3181 10.6784 14.9597 11.136 13.9485 11.5744C12.6269 12.16 10.6781 12.48 8.59808 12.48C6.51808 12.48 4.56928 12.16 3.24768 11.5744C2.23648 11.136 1.87808 10.6784 1.87808 10.4V8.7776H1.89728C1.96128 8.8192 2.03168 8.8608 2.10528 8.9024L2.19808 8.96L2.38048 9.0528L2.46688 9.0976C2.55648 9.1392 2.64928 9.184 2.74848 9.2256C4.21408 9.872 6.35808 10.24 8.59808 10.24C10.8381 10.24 12.9821 9.872 14.4605 9.2256C14.5597 9.184 14.6525 9.1392 14.7453 9.0944L14.8221 9.056L15.0141 8.9568L15.0845 8.9152C15.1613 8.8736 15.2349 8.832 15.3021 8.7872L15.3181 8.7776ZM15.3181 6.88C15.3181 7.1584 14.9597 7.616 13.9485 8.0544C12.6269 8.64 10.6781 8.96 8.59808 8.96C6.51808 8.96 4.56928 8.64 3.24768 8.0544C2.23648 7.616 1.87808 7.1584 1.87808 6.88V5.2576C2.15153 5.42959 2.43832 5.5794 2.73568 5.7056C4.21408 6.352 6.35808 6.72 8.59808 6.72C8.87968 6.72 9.15808 6.72 9.43648 6.704C10.0765 6.6752 10.7165 6.6144 11.3245 6.528C11.7469 6.4672 12.1597 6.3968 12.5501 6.3104C13.2079 6.1704 13.8508 5.96788 14.4701 5.7056C14.7643 5.57913 15.0478 5.42932 15.3181 5.2576V6.88ZM8.59808 1.28C12.7005 1.28 15.3181 2.512 15.3181 3.36C15.3181 3.6384 14.9597 4.096 13.9485 4.5344C12.6269 5.12 10.6781 5.44 8.59808 5.44C8.33888 5.44 8.07968 5.44 7.82688 5.424C7.57408 5.408 7.25728 5.3952 6.97888 5.3696C6.34881 5.31761 5.72256 5.22677 5.10368 5.0976C4.89035 5.0528 4.68555 5.0048 4.48928 4.9536L4.34848 4.9184C3.97318 4.8158 3.60538 4.68749 3.24768 4.5344C2.23648 4.096 1.87808 3.6384 1.87808 3.36C1.87808 2.512 4.49568 1.28 8.59808 1.28ZM8.59808 16C4.49568 16 1.87808 14.768 1.87808 13.92V12.2976H1.89728C1.96128 12.3392 2.03168 12.3808 2.10528 12.4224L2.19808 12.48L2.38048 12.5728L2.46688 12.6176C2.55648 12.6592 2.64928 12.704 2.74848 12.7456C4.21408 13.392 6.35808 13.76 8.59808 13.76C10.8381 13.76 12.9821 13.392 14.4605 12.7456C14.5597 12.704 14.6525 12.6592 14.7453 12.6144L14.8221 12.576L15.0141 12.4768L15.0845 12.4352C15.1613 12.3936 15.2349 12.352 15.3021 12.3072V13.92C15.3181 14.768 12.7005 16 8.59808 16Z" fill="#042046"/>
</svg>
